<?xml version="1.0" encoding="UTF-8"?>
<svg id="Capa_1" data-name="Capa 1" xmlns="http://www.w3.org/2000/svg" viewBox="0 0 144.18 15.82">
  <defs>
    <style>
      .cls-1 {
        fill: #10b981;
      }

      .cls-2 {
        fill: #14b8a6;
      }
    </style>
  </defs>
  <path class="cls-1" d="M1,1.15h8.56c.79,0,1.23.52,1.23,1.34v2.07c0,.58-.08,1.27-.58,1.27-.65,0-.79-.92-1.19-1.42-.4-.48-1.06-.71-1.73-.71-1.31,0-2.15.46-2.67,1.34-.08.15-.12.29-.19.44v1.63c.86-1.04,1.82-1.84,3.51-1.84.54,0,.96.17,1.17.54.08.17.1.52.1.88,0,.79.02,1.48.02,2.34,0,.31-.15.77-.5.77-.15,0-.25-.1-.35-.21-.5-.48-.88-1.15-1.79-1.15-1.34,0-2.11,1.06-2.11,2.07v1.5c.06.9.4,1.75.81,2.42.21.33.33.5.33.79,0,.4-.42.52-.79.52H.9c-.88,0-.9-.1-.9-.56,0-.27.44-.94.56-1.15.29-.48.35-1.52.35-2.09v-7.31c-.02-.75-.04-1.82-.63-2.36-.13-.12-.29-.23-.29-.48,0-.5.54-.65,1-.65Z"/>
  <path class="cls-1" d="M21.02,15.09c0,.5-.46.65-.79.65h-6.99c-.77,0-1.34-.73-1.34-1.98,0-.94-.02-1.86-.02-2.8,0-.67.04-1.34.33-1.9.58-1.11,2.02-1.4,3.19-1.61.46-.08.92-.12,1.38-.17.19-.02.27-.1.27-.23,0-.67-1.15-1.15-1.88-1.15-1.09,0-1.63.42-2.05,1.11-.15.23-.46.65-.75.65-.38,0-.46-.48-.46-1.02v-1.82c0-.38.4-.81.83-.81h5.99c.9,0,1.48.5,1.48,1.67v7.54c0,.46,0,.88.25,1.15.19.21.54.38.54.73ZM17.05,12.11c0-1.04,0-2.63-.08-2.67-.02-.02-.08-.02-.13-.02-1.13,0-1.63,1.23-1.63,2.32,0,.83.17,2,1.06,2,.42,0,.77-.23.77-.63v-1Z"/>
  <path class="cls-1" d="M35.88,12.42c0,.46.02.92.1,1.38.08.46.25.81.35,1.25.02.04,0,.1,0,.17,0,.27-.12.5-.4.5h-2.05c-.52,0-.56-.08-.79-.4-.4-.56-.52-1.34-.52-2.19,0-1.86.44-3.53.44-5.34,0-.63-.12-1.38-.83-1.38-.83,0-.9,1.27-.94,1.75-.08.81-.17,1.65-.27,2.46-.08.61-.12,1.21-.12,1.79,0,.46.02.92.1,1.38s.23.81.33,1.25c.02.04.02.1.02.17,0,.27-.12.5-.4.5h-2.09c-.5,0-.56-.1-.77-.4-.4-.56-.5-1.34-.5-2.19,0-1.86.42-3.53.42-5.32,0-.63-.12-1.4-.92-1.4-1.06,0-1.09.71-1.09.71v4.34c.02.92-.02,1.9.46,2.73.1.19.42.61.42.98,0,.29-.21.46-.48.5-.33.04-1.21.06-2.07.06s-1.69-.02-2.02-.06c-.29-.04-.46-.19-.46-.52,0-.4.27-.71.46-1.04.35-.63.35-1.32.35-2.03v-5.82c0-.23-.02-.5-.15-.69-.23-.31-.73-.52-.73-.94,0-.48.48-.63.83-.63h11.29c1.17,0,2.15.73,2.34,1.71.08.5.12.96.12,1.42,0,1.82-.46,3.47-.46,5.28Z"/>
  <path class="cls-1" d="M46.86,15.09c0,.5-.46.65-.79.65h-6.99c-.77,0-1.34-.73-1.34-1.98,0-.94-.02-1.86-.02-2.8,0-.67.04-1.34.33-1.9.58-1.11,2.02-1.4,3.19-1.61.46-.08.92-.12,1.38-.17.19-.02.27-.1.27-.23,0-.67-1.15-1.15-1.88-1.15-1.09,0-1.63.42-2.05,1.11-.15.23-.46.65-.75.65-.38,0-.46-.48-.46-1.02v-1.82c0-.38.4-.81.83-.81h5.99c.9,0,1.48.5,1.48,1.67v7.54c0,.46,0,.88.25,1.15.19.21.54.38.54.73ZM42.89,12.11c0-1.04,0-2.63-.08-2.67-.02-.02-.08-.02-.13-.02-1.13,0-1.63,1.23-1.63,2.32,0,.83.17,2,1.06,2,.42,0,.77-.23.77-.63v-1Z"/>
  <path class="cls-1" d="M51.8,12.11c0,.79,0,1.73.31,2.25.17.29.52.54.52.9,0,.25-.15.48-.46.48h-4.09c-.31,0-.46-.23-.46-.48,0-.35.35-.61.52-.9.31-.52.31-1.46.31-2.25v-6.53c-.04-.19-.1-.35-.25-.48-.19-.17-.56-.23-.56-.58,0-.42.5-.5.83-.5h2.55c.63,0,.79.42.79.77,0,2.44-.02,4.88-.02,7.33ZM50.91,3.32h-1.69c-.5,0-.69-.46-.69-.98v-.67c0-.5.46-.67.98-.67h1.11c.52,0,.96.17.96.67v.67c0,.52-.17.98-.67.98Z"/>
  <path class="cls-1" d="M58.48,15.16c0,.29-.17.58-.5.58h-3.97c-.38,0-.54-.29-.54-.58,0-.38.25-.69.44-1,.44-.77.38-1.73.4-2.61V3.09c0-.23-.1-.46-.25-.61-.15-.15-.35-.23-.48-.4-.06-.1-.08-.21-.08-.33,0-.06,0-.13.02-.19.13-.33.52-.44.81-.44h2.55c.63,0,.79.54.79.98v10.08c0,.71.04,1.4.42,2.03.17.29.4.58.4.94Z"/>
  <path class="cls-1" d="M64.24,15.16c0,.29-.17.58-.5.58h-3.97c-.38,0-.54-.29-.54-.58,0-.38.25-.69.44-1,.44-.77.38-1.73.4-2.61V3.09c0-.23-.1-.46-.25-.61-.15-.15-.35-.23-.48-.4-.06-.1-.08-.21-.08-.33,0-.06,0-.13.02-.19.12-.33.52-.44.81-.44h2.55c.63,0,.79.54.79.98v10.08c0,.71.04,1.4.42,2.03.17.29.4.58.4.94Z"/>
  <path class="cls-1" d="M74.39,15.09c0,.5-.46.65-.79.65h-6.99c-.77,0-1.34-.73-1.34-1.98,0-.94-.02-1.86-.02-2.8,0-.67.04-1.34.33-1.9.58-1.11,2.03-1.4,3.19-1.61.46-.08.92-.12,1.38-.17.19-.02.27-.1.27-.23,0-.67-1.15-1.15-1.88-1.15-1.08,0-1.63.42-2.04,1.11-.15.23-.46.65-.75.65-.38,0-.46-.48-.46-1.02v-1.82c0-.38.4-.81.83-.81h5.99c.9,0,1.48.5,1.48,1.67v7.54c0,.46,0,.88.25,1.15.19.21.54.38.54.73ZM70.25.1c.1-.08.17-.1.25-.1.17,0,.33.15.5.38l.56.69c.12.15.19.27.19.38s-.06.21-.23.31l-2.32,1.54c-.1.08-.19.13-.27.13-.19,0-.31-.21-.52-.46-.17-.23-.42-.54-.42-.77,0-.06.02-.12.08-.17l2.17-1.92ZM70.42,12.11c0-1.04,0-2.63-.08-2.67-.02-.02-.08-.02-.13-.02-1.13,0-1.63,1.23-1.63,2.32,0,.83.17,2,1.06,2,.42,0,.77-.23.77-.63v-1Z"/>
  <path class="cls-2" d="M83.26,3.9c0-.75-.81-.94-1.48-.94-1.65,0-1.98,1.42-2.21,2.71-.15.77-.23,1.59-.23,2.38,0,2.44.69,5.13,3.15,5.13,1.02,0,1.88-.58,2.36-1.29.36-.52.5-1.29,1.19-1.5.04-.02.11-.02.15-.02.23,0,.36.21.36.4v4.2c-.02.77-.71.86-1.15.86h-5.62c-1.59-.04-3.28-.02-4.03-1.07-.33-.46-.42-1.04-.46-1.63-.04-.44-.04-.94-.04-1.38,0-1.38.15-2.75.36-4.11.23-1.44.86-2.94.86-4.4,0-.25-.11-.54-.17-.71-.08-.21-.33-.6-.33-.92,0-.25.08-.48.25-.48h8.58c.56,0,1.17.06,1.38.4.17.27.19.67.19,1.09v1.69c0,.77-.06,1.65-.4,1.98-.42.42-1.82.44-2.48.44h-.65c-.46,0-.83-.02-1.5-.08-.17-.02-.25-.12-.27-.27-.08-.42-.17-.81-.17-1.29,0-.38.13-.96.54-.96.21,0,.33.23.54.4.17.12.36.21.54.21.46,0,.75-.42.75-.81Z"/>
  <path class="cls-2" d="M96.76,4.7c0,.38-.27.5-.44.73-.17.21-.21.44-.21.69,0,1.71.88,2.99.88,5.03,0,1.4-.17,2.63-.65,3.65-.19.4-.81.94-1.32.94h-5.34c-.71,0-1.13-.54-1.31-.94-.48-1.02-.67-2.28-.67-3.65,0-1.98.88-3.32.88-5.03,0-.25-.04-.5-.21-.69-.17-.21-.44-.38-.44-.73,0-.42.42-.69.83-.69h7.18c.42,0,.81.27.81.69ZM93.57,9.44c0-2.69-.77-3.13-1.21-3.13s-1.23.5-1.23,3.19c.02,2.73.65,3.95,1.23,3.97.59-.02,1.21-1.29,1.21-4.03Z"/>
  <path class="cls-2" d="M107.14,12.42c0,.46.04.92.12,1.38.06.4.46,1.04.46,1.4,0,.29-.19.54-.52.54h-1.65c-.08,0-.19.02-.29.02-.27,0-.54,0-.73-.06-.12-.04-.23-.19-.31-.29-.44-.61-.5-1.38-.5-2.3,0-1.73.31-3.36.42-4.99v-.35c0-.65-.15-1.4-.96-1.4-.46,0-.96.29-.96.83l-.04,4.26c.02.92-.06,1.9.42,2.73.17.29.4.54.4.98,0,.31-.19.46-.46.5-.33.04-1.19.06-2.04.06s-1.71-.02-2.05-.06c-.29-.04-.46-.19-.46-.52,0-.4.27-.71.46-1.04.36-.65.36-1.32.36-2.03v-5.82c0-.23-.02-.52-.15-.71-.23-.31-.73-.5-.73-.92,0-.48.48-.63.84-.63h6.49c1.92,0,2.36,1.34,2.36,3.13s-.46,3.47-.46,5.28Z"/>
  <path class="cls-2" d="M109.72,4.01h6.39c.79,0,1.61.27,1.63,1.09v5.07c0,.9-.6,1.59-1.23,1.59l-3.4.21c-.23.02-.44.02-.44.29,0,.88,1.06,1.61,1.94,1.61s1.69-.5,2.26-1.17c.12-.15.27-.31.46-.31.46,0,.48.48.48,1.19v1.06c0,.4-.06.83-.48,1.02-.19.08-.4.08-.59.08h-5.47c-.46,0-.96-.02-1.31-.31-.46-.38-.5-1.02-.5-1.63,0-2.48.06-4.99.06-7.47,0-.25-.02-.52-.15-.73-.21-.36-.63-.58-.63-.98,0-.48.48-.61.98-.61ZM113.92,6.16c-.71,0-.92,1.21-1.02,1.84-.06.4-.08.77-.08,1.19,0,.35.02.75.38.75,1.08,0,1.52-1.15,1.52-2.19,0-.65-.17-1.59-.79-1.59Z"/>
  <path class="cls-2" d="M124.77,7.06c0-.4-.46-.69-.83-.69-1.27,0-1.61,2.17-1.61,3.32,0,1,.23,3.82,2.61,3.82.71,0,1.13-.31,1.38-.79.19-.4.25-1.17.81-1.17.19,0,.33.1.42.33.06.19.08.61.08.61v1.61c0,1.15-.61,1.65-1.5,1.65h-5.24c-.71,0-1.13-.54-1.31-.94-.46-1.02-.67-2.28-.67-3.65,0-1.04.12-1.96.36-2.84.19-.71.52-1.36.52-2.19,0-.25-.04-.5-.21-.69-.17-.21-.44-.38-.44-.73,0-.44.4-.69.83-.69h6.16c.9,0,1.5.67,1.5,1.82l.02,1.34c-.02.48-.08.86-.38,1.08-.19.15-.48.17-.77.17h-1.84c-.27,0-.54-.12-.54-.38,0-.46.65-.48.65-.98Z"/>
  <path class="cls-2" d="M133.35,4.03c.15,0,.27-.02.4-.02.29,0,.33.21.33.29v1.17c0,.33-.44.36-.44.36h-.52c-.23,0-.59.1-.59.61v6.97c0,.25.08.44.31.44s.54-.17.77-.17c.21,0,.33.17.33.4v1.02c0,.08-.02.65-.67.65h-3.03c-.96,0-1.11-.98-1.11-1.34,0-1.67.04-6.64.04-8.31v-.17h-.48c-.19,0-.27-.13-.27-.27,0-.08.02-.21.08-.31.06-.12.36-.69.48-.94.12-.25,1.59-2.9,1.73-3.11.15-.21.52-.27,1-.27h1.4c.08,0,.13.04.13.1,0,.13-.13.36-.25.58-.19.35-.35.73-.42.83-.11.17-.17.4-.17.61,0,.61.33.88.92.88Z"/>
  <path class="cls-2" d="M144.18,15.09c0,.5-.46.65-.79.65h-6.99c-.77,0-1.34-.73-1.34-1.98,0-.94-.02-1.86-.02-2.8,0-.67.04-1.34.33-1.9.59-1.11,2.03-1.4,3.2-1.61.46-.08.92-.12,1.38-.17.19-.02.27-.1.27-.23,0-.67-1.15-1.15-1.88-1.15-1.09,0-1.63.42-2.04,1.11-.15.23-.46.65-.75.65-.38,0-.46-.48-.46-1.02v-1.82c0-.38.4-.81.83-.81h5.99c.9,0,1.48.5,1.48,1.67v7.54c0,.46,0,.88.25,1.15.19.21.54.38.54.73ZM140.22,12.11c0-1.04,0-2.63-.08-2.67-.02-.02-.08-.02-.12-.02-1.13,0-1.63,1.23-1.63,2.32,0,.83.17,2,1.06,2,.42,0,.77-.23.77-.63v-1Z"/>
</svg>